<svg width="500" height="500" viewBox="0 0 500 500" fill="none" xmlns="http://www.w3.org/2000/svg">
<circle cx="250" cy="250" r="250" fill="#393FCF"/>
<rect x="140" y="320.076" width="220" height="32" fill="white"/>
<path d="M310.34 281C298.824 281 289.228 278.688 281.551 274.065C274.034 269.283 268.356 262.029 264.518 252.304C260.839 242.42 259 229.986 259 215C259 199.855 260.919 187.42 264.758 177.696C268.756 167.971 274.514 160.797 282.031 156.174C289.708 151.391 299.224 149 310.58 149C318.257 149 325.134 149.957 331.211 151.87C337.449 153.783 342.647 156.812 346.805 160.957C351.124 165.101 354.402 170.522 356.641 177.217C358.88 183.913 360 192.043 360 201.609H325.454C325.454 195.391 324.974 190.449 324.014 186.783C323.055 183.116 321.535 180.486 319.456 178.891C317.377 177.297 314.418 176.5 310.58 176.5C307.061 176.5 304.102 177.457 301.703 179.37C299.304 181.283 297.545 184.471 296.425 188.935C295.306 193.239 294.746 199.138 294.746 206.63V223.848C294.746 230.225 295.226 235.645 296.185 240.109C297.305 244.572 299.064 248 301.463 250.391C303.862 252.623 307.061 253.739 311.059 253.739C314.738 253.739 317.697 252.942 319.936 251.348C322.175 249.754 323.854 247.123 324.974 243.457C326.093 239.79 326.653 234.768 326.653 228.391H360C360 237.159 358.88 244.891 356.641 251.587C354.562 258.123 351.363 263.623 347.045 268.087C342.887 272.391 337.689 275.659 331.451 277.891C325.374 279.964 318.337 281 310.34 281Z" fill="white"/>
<path d="M190.336 281C178.706 281 168.988 278.764 161.181 274.292C153.374 269.82 147.559 262.713 143.735 252.971C139.912 243.229 138 230.532 138 214.88C138 199.069 139.991 186.372 143.974 176.789C148.117 167.047 154.091 160.02 161.898 155.708C169.705 151.236 179.343 149 190.814 149C202.126 149 211.446 151.076 218.775 155.229C226.263 159.221 231.839 165.929 235.503 175.352C239.168 184.775 241 197.392 241 213.203V221.588H173.608C173.608 229.094 174.086 235.323 175.042 240.274C176.157 245.225 177.91 248.978 180.299 251.534C182.848 253.929 186.274 255.127 190.575 255.127C193.284 255.127 195.594 254.728 197.506 253.929C199.577 252.971 201.25 251.613 202.524 249.857C203.799 247.94 204.755 245.624 205.392 242.909C206.029 240.194 206.348 236.92 206.348 233.087H240.761C240.761 241.073 239.646 248.1 237.415 254.169C235.344 260.238 232.158 265.269 227.856 269.261C223.714 273.094 218.456 276.049 212.084 278.125C205.87 280.042 198.621 281 190.336 281ZM173.847 202.662H205.392C205.392 197.552 205.073 193.24 204.436 189.726C203.958 186.212 203.162 183.338 202.046 181.102C200.931 178.866 199.418 177.269 197.506 176.31C195.594 175.352 193.284 174.873 190.575 174.873C186.592 174.873 183.406 175.911 181.016 177.987C178.626 179.904 176.874 182.938 175.759 187.091C174.643 191.083 174.006 196.274 173.847 202.662Z" fill="white"/>
</svg>
