<?xml version="1.0" encoding="utf-8"?>
<!-- Generator: $$$/GeneralStr/196=Adobe Illustrator 27.6.0, SVG Export Plug-In . SVG Version: 6.00 Build 0)  -->
<svg version="1.1" id="Calque_1" xmlns="http://www.w3.org/2000/svg" xmlns:xlink="http://www.w3.org/1999/xlink" x="0px" y="0px"
	 viewBox="0 0 343.4 43.6" style="enable-background:new 0 0 343.4 43.6;" xml:space="preserve">
<style type="text/css">
	.st0{fill:#393FCF;}
</style>
<path class="st0" d="M327.7,43.1c-2.6,0-4.8-0.3-6.7-0.9c-1.8-0.6-3.3-1.4-4.5-2.5c-1.1-1.1-2-2.4-2.6-3.8c-0.6-1.5-0.9-3.2-0.9-5
	c0-0.3,0-0.5,0-0.9c0.1-0.4,0.1-0.7,0.2-1.1h10c0,0.4,0,0.7,0,0.9c0,0.2,0,0.4,0,0.7c0,0.9,0.2,1.7,0.5,2.3c0.4,0.7,0.9,1.2,1.5,1.6
	c0.7,0.4,1.5,0.5,2.5,0.5c0.8,0,1.6-0.1,2.2-0.4s1.1-0.7,1.5-1.2c0.4-0.6,0.5-1.4,0.5-2.3c0-1.2-0.4-2.1-1.2-2.8
	c-0.7-0.7-1.7-1.2-2.9-1.7c-1.2-0.5-2.5-0.9-3.8-1.4c-1.2-0.4-2.5-0.9-3.7-1.5c-1.2-0.6-2.3-1.3-3.3-2.3c-1-0.9-1.8-2.1-2.4-3.5
	c-0.6-1.5-0.9-3.2-0.9-5.3c0-2.2,0.4-4.1,1.1-5.7c0.8-1.6,1.8-2.8,3.1-3.8c1.4-1,2.9-1.8,4.7-2.3c1.8-0.5,3.6-0.7,5.5-0.7
	c2,0,3.8,0.2,5.5,0.7c1.7,0.4,3.1,1.1,4.3,2c1.2,0.9,2.2,2,2.9,3.4c0.7,1.3,1,2.8,1,4.5c0,0.4,0,0.9-0.1,1.3c0,0.4,0,0.8,0,1.1h-10
	v-1.3c0-0.9-0.2-1.6-0.5-2.1c-0.3-0.5-0.8-0.9-1.3-1.2c-0.6-0.3-1.2-0.5-2-0.5c-0.5,0-1,0.1-1.5,0.2c-0.5,0.2-0.9,0.4-1.2,0.7
	c-0.3,0.3-0.6,0.6-0.8,1c-0.2,0.4-0.3,0.9-0.3,1.5c0,1,0.3,1.8,1,2.4c0.7,0.6,1.5,1.1,2.6,1.5c1.1,0.4,2.3,0.9,3.6,1.3
	c1.2,0.4,2.6,0.9,3.9,1.5c1.4,0.5,2.7,1.2,3.8,2.1c1.1,0.9,2.1,2,2.8,3.4c0.7,1.4,1.1,3.2,1.1,5.4c0,2.5-0.4,4.6-1.2,6.4
	c-0.7,1.8-1.8,3.2-3.1,4.4c-1.4,1.1-3,1.9-4.8,2.4C331.9,42.8,329.9,43.1,327.7,43.1z"/>
<path class="st0" d="M277.8,42.2V1h9.5l0.7,5.1h0.4c0.7-1.4,1.5-2.5,2.4-3.4c1-0.9,2.1-1.6,3.3-2c1.2-0.4,2.6-0.6,4.1-0.6
	c2.3,0,4.2,0.4,5.6,1.3c1.5,0.9,2.5,2.2,3.2,3.9c0.7,1.7,1,3.9,1,6.5v30.4h-11.2V14.7c0-0.7-0.1-1.4-0.2-1.9
	c-0.1-0.6-0.3-1.1-0.6-1.5c-0.3-0.4-0.6-0.7-1-0.9c-0.4-0.2-0.9-0.3-1.6-0.3c-1,0-1.9,0.3-2.6,1c-0.7,0.7-1.2,1.6-1.6,2.9
	c-0.3,1.2-0.5,2.6-0.5,4.3v23.9H277.8z"/>
<path class="st0" d="M250.1,43.1c-3.4,0-5.9-1-7.4-3c-1.5-2-2.3-4.9-2.3-8.8V1h11.2v27.5c0,0.7,0.1,1.4,0.2,2c0.2,0.5,0.4,1,0.6,1.4
	s0.6,0.7,1,0.9c0.5,0.2,1,0.2,1.6,0.2c1.1,0,2-0.3,2.7-1s1.2-1.6,1.5-2.8c0.4-1.2,0.5-2.7,0.5-4.4V1h11.1v41.2h-9.5l-0.6-5.2h-0.4
	c-0.7,1.4-1.6,2.5-2.6,3.4c-0.9,0.9-2,1.5-3.3,2C253.1,42.9,251.7,43.1,250.1,43.1z"/>
<path class="st0" d="M185.4,42.2V1h9.5l0.7,5.1h0.4c0.7-1.4,1.5-2.5,2.4-3.4c0.9-0.9,2-1.6,3.2-2c1.2-0.4,2.5-0.6,4-0.6
	c2.4,0,4.3,0.5,5.7,1.5c1.4,1,2.4,2.5,3,4.5h0.4c0.7-1.4,1.5-2.5,2.3-3.4c0.9-0.9,2-1.6,3.2-2c1.2-0.4,2.6-0.6,4.1-0.6
	c2.2,0,4.1,0.4,5.5,1.3c1.4,0.8,2.4,2.1,3.1,3.9c0.7,1.7,1,3.9,1,6.4v30.5h-11.1V14.7c0-0.7-0.1-1.4-0.2-2c-0.1-0.6-0.3-1-0.5-1.4
	c-0.3-0.4-0.6-0.7-1-0.9c-0.4-0.2-0.9-0.3-1.5-0.3c-1,0-1.8,0.3-2.5,1c-0.6,0.7-1.1,1.6-1.4,2.9c-0.3,1.2-0.5,2.6-0.5,4.3v23.9
	h-11.1V14.7c0-0.7-0.1-1.4-0.2-2s-0.3-1-0.6-1.4c-0.3-0.4-0.6-0.7-1-0.9c-0.4-0.2-0.9-0.3-1.5-0.3c-1,0-1.8,0.3-2.5,1
	c-0.6,0.7-1.1,1.6-1.4,2.9c-0.3,1.2-0.5,2.6-0.5,4.3v23.9H185.4z"/>
<path class="st0" d="M130,42.2V1h9.5l0.7,5.1h0.4c0.7-1.4,1.5-2.5,2.4-3.4c0.9-0.9,2-1.6,3.2-2c1.2-0.4,2.5-0.6,4-0.6
	c2.4,0,4.3,0.5,5.7,1.5s2.4,2.5,3,4.5h0.4c0.7-1.4,1.5-2.5,2.3-3.4c0.9-0.9,2-1.6,3.2-2c1.2-0.4,2.6-0.6,4.1-0.6
	c2.2,0,4.1,0.4,5.5,1.3c1.4,0.8,2.4,2.1,3.1,3.9c0.7,1.7,1,3.9,1,6.4v30.5h-11.1V14.7c0-0.7-0.1-1.4-0.2-2c-0.1-0.6-0.3-1-0.5-1.4
	c-0.3-0.4-0.6-0.7-1-0.9c-0.4-0.2-0.9-0.3-1.5-0.3c-1,0-1.8,0.3-2.5,1c-0.6,0.7-1.1,1.6-1.4,2.9c-0.3,1.2-0.5,2.6-0.5,4.3v23.9
	h-11.1V14.7c0-0.7-0.1-1.4-0.2-2c-0.1-0.6-0.3-1-0.6-1.4c-0.3-0.4-0.6-0.7-1-0.9c-0.4-0.2-0.9-0.3-1.5-0.3c-1,0-1.8,0.3-2.5,1
	c-0.6,0.7-1.1,1.6-1.4,2.9c-0.3,1.2-0.5,2.6-0.5,4.3v23.9H130z"/>
<path class="st0" d="M107.9,43.1c-3.6,0-6.6-0.8-9.1-2.3c-2.4-1.5-4.2-3.9-5.5-7c-1.2-3.2-1.8-7.3-1.8-12.3c0-5,0.6-9.1,1.8-12.2
	c1.2-3.2,3.1-5.5,5.5-7c2.4-1.5,5.5-2.3,9.1-2.3c3.6,0,6.7,0.8,9.1,2.3c2.4,1.5,4.3,3.9,5.5,7c1.2,3.1,1.9,7.2,1.9,12.2
	c0,5-0.6,9.1-1.9,12.3c-1.2,3.2-3.1,5.5-5.5,7C114.6,42.4,111.5,43.1,107.9,43.1z M107.9,34.2c1.2,0,2.2-0.3,3-0.9
	c0.7-0.6,1.2-1.6,1.6-3c0.3-1.4,0.5-3.3,0.5-5.6v-6.1c0-2.4-0.2-4.3-0.5-5.7c-0.3-1.4-0.8-2.4-1.6-3c-0.7-0.6-1.7-0.9-3-0.9
	c-1.2,0-2.2,0.3-2.9,0.9c-0.7,0.6-1.2,1.6-1.6,3c-0.3,1.4-0.5,3.3-0.5,5.7v6.1c0,2.3,0.2,4.2,0.5,5.6c0.3,1.4,0.8,2.4,1.6,3
	C105.7,33.9,106.7,34.2,107.9,34.2z"/>
<path class="st0" d="M71.7,43.1c-3.5,0-6.5-0.8-8.9-2.3c-2.3-1.6-4.1-3.9-5.2-7.1c-1.1-3.2-1.7-7.2-1.7-12.2c0-5,0.6-9.1,1.8-12.3
	c1.2-3.2,3-5.5,5.3-7C65.3,0.8,68.3,0,71.8,0c2.4,0,4.6,0.3,6.6,0.9c1.9,0.6,3.5,1.6,4.8,3c1.3,1.4,2.3,3.1,2.9,5.3
	c0.7,2.2,1,4.8,1,8H76.2c0-2-0.1-3.6-0.4-4.8c-0.3-1.2-0.7-2.1-1.3-2.7c-0.6-0.5-1.5-0.8-2.7-0.8c-1,0-1.9,0.3-2.6,0.9
	c-0.7,0.6-1.2,1.6-1.6,3c-0.3,1.4-0.5,3.3-0.5,5.8v6.2c0,2,0.1,3.7,0.4,5.2c0.3,1.4,0.8,2.5,1.5,3.3c0.7,0.7,1.7,1.1,2.9,1.1
	c1.1,0,2-0.3,2.6-0.8c0.7-0.5,1.2-1.4,1.5-2.6c0.3-1.2,0.5-2.9,0.5-5h10.6c0,2.9-0.3,5.4-1,7.6c-0.6,2.1-1.6,3.9-2.9,5.4
	c-1.3,1.4-2.9,2.5-4.8,3.2C76.4,42.8,74.2,43.1,71.7,43.1z"/>
<path class="st0" d="M27.5,29.3V1.8H34l0.5,3.5h0.3c0.5-0.9,1.1-1.7,1.7-2.3C37.2,2.4,38,2,38.8,1.7c0.9-0.3,1.8-0.5,2.9-0.5
	c1.6,0,2.9,0.3,3.9,0.9c1,0.6,1.8,1.5,2.3,2.7c0.5,1.2,0.7,2.7,0.7,4.5v20h-7.6V11.2c0-0.5-0.1-1-0.2-1.4c-0.1-0.4-0.3-0.8-0.5-1
	c-0.2-0.3-0.5-0.5-0.8-0.6c-0.3-0.2-0.7-0.3-1.1-0.3c-0.7,0-1.4,0.2-1.9,0.7c-0.5,0.5-0.9,1.1-1.1,1.9c-0.2,0.8-0.4,1.8-0.4,2.9
	v15.9H27.5z"/>
<path class="st0" d="M11.4,29.9c-2.5,0-4.7-0.5-6.4-1.5c-1.7-1-3-2.5-3.8-4.6C0.4,21.7,0,19,0,15.6c0-3.4,0.4-6.2,1.3-8.3
	c0.9-2.1,2.2-3.6,3.9-4.6c1.7-1,3.8-1.5,6.3-1.5c2.5,0,4.5,0.5,6.1,1.4c1.6,0.9,2.8,2.3,3.6,4.4c0.8,2,1.2,4.8,1.2,8.2V17H7.8
	c0,1.6,0.1,3,0.3,4.1c0.2,1.1,0.6,1.9,1.1,2.4c0.6,0.5,1.3,0.8,2.2,0.8c0.6,0,1.1-0.1,1.5-0.3c0.5-0.2,0.8-0.5,1.1-0.9
	c0.3-0.4,0.5-0.9,0.6-1.5c0.1-0.6,0.2-1.3,0.2-2.1h7.5c0,1.7-0.2,3.3-0.7,4.6c-0.5,1.3-1.1,2.4-2.1,3.3c-0.9,0.8-2,1.5-3.4,1.9
	C14.8,29.7,13.2,29.9,11.4,29.9z M7.8,12.9h6.9c0-1.1-0.1-2-0.2-2.8c-0.1-0.8-0.3-1.4-0.5-1.9s-0.6-0.8-1-1
	c-0.4-0.2-0.9-0.3-1.5-0.3c-0.9,0-1.6,0.2-2.1,0.7c-0.5,0.4-0.9,1.1-1.1,2C8,10.4,7.9,11.5,7.8,12.9z"/>
<path class="st0" d="M0.3,36.6h48.4v5.6H0.3V36.6z"/>
</svg>
