<svg width="350" height="48" viewBox="0 0 350 48" fill="none" xmlns="http://www.w3.org/2000/svg">
<path d="M331.136 46.1931C328.532 46.1931 326.294 45.9068 324.42 45.3341C322.597 44.7614 321.114 43.9284 319.968 42.8351C318.823 41.7418 317.964 40.4663 317.391 39.0085C316.818 37.4987 316.532 35.8327 316.532 34.0106C316.532 33.7502 316.532 33.4639 316.532 33.1515C316.584 32.7871 316.636 32.4227 316.688 32.0582H326.684C326.684 32.4227 326.684 32.735 326.684 32.9953C326.684 33.2036 326.684 33.4379 326.684 33.6982C326.684 34.5832 326.84 35.3642 327.153 36.041C327.517 36.7178 328.012 37.2384 328.637 37.6028C329.313 37.9673 330.146 38.1495 331.136 38.1495C331.969 38.1495 332.697 38.0193 333.322 37.759C333.947 37.4987 334.441 37.0822 334.806 36.5095C335.17 35.8848 335.353 35.1039 335.353 34.1667C335.353 32.9693 334.962 32.0322 334.181 31.3554C333.452 30.6786 332.489 30.1059 331.292 29.6373C330.094 29.1688 328.819 28.7002 327.465 28.2317C326.216 27.8152 324.966 27.3206 323.717 26.7479C322.519 26.1752 321.426 25.4203 320.437 24.4832C319.448 23.5461 318.641 22.3747 318.016 20.969C317.391 19.5112 317.079 17.7411 317.079 15.6586C317.079 13.42 317.443 11.5197 318.172 9.95784C318.953 8.39597 319.994 7.12045 321.296 6.13127C322.649 5.09003 324.211 4.33513 325.981 3.86657C327.751 3.39801 329.6 3.16373 331.526 3.16373C333.504 3.16373 335.327 3.39801 336.993 3.86657C338.659 4.28306 340.09 4.95987 341.288 5.89699C342.537 6.78205 343.5 7.90138 344.177 9.255C344.854 10.5566 345.192 12.0664 345.192 13.7844C345.192 14.2009 345.166 14.6434 345.114 15.112C345.114 15.5285 345.114 15.8929 345.114 16.2053H335.118V14.8777C335.118 13.9927 334.962 13.2898 334.65 12.7692C334.337 12.2486 333.895 11.8581 333.322 11.5978C332.749 11.2854 332.073 11.1292 331.292 11.1292C330.771 11.1292 330.276 11.2073 329.808 11.3635C329.339 11.5197 328.923 11.754 328.558 12.0664C328.246 12.3267 327.986 12.6651 327.778 13.0816C327.569 13.4981 327.465 13.9927 327.465 14.5653C327.465 15.5545 327.804 16.3615 328.48 16.9862C329.157 17.5589 330.016 18.0535 331.057 18.47C332.151 18.8865 333.348 19.329 334.65 19.7976C335.899 20.2141 337.201 20.7087 338.554 21.2814C339.96 21.802 341.236 22.5048 342.381 23.3899C343.526 24.2749 344.463 25.4203 345.192 26.826C345.921 28.2317 346.286 30.0278 346.286 32.2144C346.286 34.7134 345.895 36.8479 345.114 38.6181C344.385 40.3882 343.344 41.8459 341.99 42.9913C340.637 44.0846 339.023 44.8915 337.149 45.4122C335.327 45.9328 333.322 46.1931 331.136 46.1931Z" fill="#393FCF"/>
<path d="M281.184 45.256V4.10085H290.712L291.415 9.17691H291.805C292.482 7.82329 293.289 6.70395 294.226 5.8189C295.215 4.88178 296.308 4.20497 297.506 3.78847C298.755 3.37198 300.135 3.16373 301.645 3.16373C303.936 3.16373 305.81 3.60626 307.267 4.49131C308.725 5.37637 309.792 6.67792 310.469 8.39597C311.146 10.114 311.485 12.2746 311.485 14.8777V45.256H300.317V17.7672C300.317 17.0383 300.239 16.4135 300.083 15.8929C299.979 15.3202 299.771 14.8257 299.458 14.4092C299.198 13.9927 298.859 13.6803 298.443 13.472C298.026 13.2638 297.506 13.1597 296.881 13.1597C295.84 13.1597 294.981 13.4981 294.304 14.1749C293.627 14.8517 293.107 15.8148 292.742 17.0643C292.43 18.2618 292.274 19.6935 292.274 21.3595V45.256H281.184Z" fill="#393FCF"/>
<path d="M253.568 46.1931C250.184 46.1931 247.711 45.204 246.149 43.2256C244.639 41.2472 243.885 38.3057 243.885 34.4011V4.10089H255.052V31.5897C255.052 32.3186 255.104 32.9694 255.208 33.542C255.364 34.0627 255.573 34.5312 255.833 34.9477C256.093 35.3642 256.432 35.6766 256.848 35.8848C257.317 36.041 257.837 36.1191 258.41 36.1191C259.503 36.1191 260.388 35.7807 261.065 35.1039C261.742 34.4271 262.236 33.49 262.549 32.2925C262.913 31.0431 263.096 29.5853 263.096 27.9193V4.10089H274.185V45.256H264.657L264.033 40.1019H263.642C262.913 41.4555 262.054 42.6009 261.065 43.538C260.128 44.423 259.035 45.0738 257.785 45.4903C256.536 45.9589 255.13 46.1931 253.568 46.1931Z" fill="#393FCF"/>
<path d="M188.83 45.256V4.10085H198.357L199.06 9.17691H199.451C200.127 7.82329 200.934 6.70395 201.871 5.8189C202.809 4.88178 203.876 4.20497 205.073 3.78847C206.271 3.37198 207.598 3.16373 209.056 3.16373C211.451 3.16373 213.351 3.65832 214.757 4.6475C216.163 5.63668 217.178 7.14648 217.802 9.17691H218.193C218.87 7.82329 219.651 6.70395 220.536 5.8189C221.473 4.88178 222.54 4.20497 223.738 3.78847C224.935 3.37198 226.289 3.16373 227.798 3.16373C230.037 3.16373 231.859 3.60626 233.265 4.49131C234.671 5.32431 235.712 6.62586 236.389 8.39597C237.065 10.114 237.404 12.2486 237.404 14.7996V45.256H226.315V17.7672C226.315 17.0383 226.237 16.3875 226.08 15.8148C225.976 15.2421 225.794 14.7736 225.534 14.4092C225.273 13.9927 224.935 13.6803 224.519 13.472C224.102 13.2638 223.607 13.1597 223.035 13.1597C222.046 13.1597 221.213 13.4981 220.536 14.1749C219.911 14.8517 219.442 15.8148 219.13 17.0643C218.818 18.2618 218.661 19.6935 218.661 21.3595V45.256H207.572V17.7672C207.572 17.0383 207.52 16.3875 207.416 15.8148C207.312 15.2421 207.104 14.7736 206.791 14.4092C206.531 13.9927 206.193 13.6803 205.776 13.472C205.36 13.2638 204.865 13.1597 204.292 13.1597C203.303 13.1597 202.47 13.4981 201.793 14.1749C201.169 14.8517 200.7 15.8148 200.388 17.0643C200.075 18.2618 199.919 19.6935 199.919 21.3595V45.256H188.83Z" fill="#393FCF"/>
<path d="M133.463 45.256V4.10085H142.991L143.693 9.17691H144.084C144.761 7.82329 145.568 6.70395 146.505 5.8189C147.442 4.88178 148.509 4.20497 149.707 3.78847C150.904 3.37198 152.232 3.16373 153.689 3.16373C156.084 3.16373 157.984 3.65832 159.39 4.6475C160.796 5.63668 161.811 7.14648 162.436 9.17691H162.826C163.503 7.82329 164.284 6.70395 165.169 5.8189C166.106 4.88178 167.173 4.20497 168.371 3.78847C169.568 3.37198 170.922 3.16373 172.432 3.16373C174.67 3.16373 176.493 3.60626 177.898 4.49131C179.304 5.32431 180.345 6.62586 181.022 8.39597C181.699 10.114 182.037 12.2486 182.037 14.7996V45.256H170.948V17.7672C170.948 17.0383 170.87 16.3875 170.714 15.8148C170.609 15.2421 170.427 14.7736 170.167 14.4092C169.907 13.9927 169.568 13.6803 169.152 13.472C168.735 13.2638 168.241 13.1597 167.668 13.1597C166.679 13.1597 165.846 13.4981 165.169 14.1749C164.544 14.8517 164.076 15.8148 163.763 17.0643C163.451 18.2618 163.295 19.6935 163.295 21.3595V45.256H152.206V17.7672C152.206 17.0383 152.153 16.3875 152.049 15.8148C151.945 15.2421 151.737 14.7736 151.425 14.4092C151.164 13.9927 150.826 13.6803 150.409 13.472C149.993 13.2638 149.498 13.1597 148.926 13.1597C147.936 13.1597 147.103 13.4981 146.427 14.1749C145.802 14.8517 145.333 15.8148 145.021 17.0643C144.709 18.2618 144.552 19.6935 144.552 21.3595V45.256H133.463Z" fill="#393FCF"/>
<path d="M111.317 46.1931C107.725 46.1931 104.705 45.4382 102.258 43.9284C99.8634 42.4186 98.0412 40.0758 96.7917 36.9C95.5943 33.7242 94.9955 29.6373 94.9955 24.6394C94.9955 19.6414 95.5943 15.5806 96.7917 12.4568C98.0412 9.28103 99.8634 6.93823 102.258 5.42843C104.705 3.91863 107.725 3.16373 111.317 3.16373C114.961 3.16373 117.981 3.91863 120.376 5.42843C122.823 6.93823 124.671 9.28103 125.92 12.4568C127.17 15.5806 127.795 19.6414 127.795 24.6394C127.795 29.6373 127.17 33.7242 125.92 36.9C124.671 40.0758 122.823 42.4186 120.376 43.9284C117.981 45.4382 114.961 46.1931 111.317 46.1931ZM111.317 37.2905C112.567 37.2905 113.556 37.0041 114.285 36.4314C115.013 35.8067 115.534 34.7915 115.846 33.3858C116.159 31.9801 116.315 30.1059 116.315 27.7631V21.6718C116.315 19.277 116.159 17.3767 115.846 15.971C115.534 14.5653 115.013 13.5501 114.285 12.9254C113.556 12.3006 112.567 11.9883 111.317 11.9883C110.12 11.9883 109.156 12.3006 108.428 12.9254C107.699 13.5501 107.178 14.5653 106.866 15.971C106.553 17.3767 106.397 19.277 106.397 21.6718V27.7631C106.397 30.1059 106.553 31.9801 106.866 33.3858C107.178 34.7915 107.699 35.8067 108.428 36.4314C109.156 37.0041 110.12 37.2905 111.317 37.2905Z" fill="#393FCF"/>
<path d="M75.0808 46.1932C71.5406 46.1932 68.5731 45.4383 66.1782 43.9285C63.8354 42.3666 62.0913 39.9978 60.946 36.822C59.8006 33.6462 59.2279 29.5854 59.2279 24.6394C59.2279 19.6415 59.8266 15.5546 61.024 12.3788C62.2215 9.20302 63.9916 6.86022 66.3344 5.35042C68.7292 3.84062 71.6968 3.08572 75.237 3.08572C77.6839 3.08572 79.8705 3.39809 81.7968 4.02284C83.7231 4.64758 85.3371 5.63676 86.6386 6.99038C87.9402 8.34399 88.9033 10.1141 89.5281 12.3007C90.2049 14.4873 90.5433 17.1425 90.5433 20.2662H79.6102C79.6102 18.2358 79.4801 16.6219 79.2198 15.4244C78.9595 14.175 78.5169 13.2899 77.8922 12.7693C77.2674 12.2487 76.3824 11.9883 75.237 11.9883C74.1958 11.9883 73.3367 12.3007 72.6599 12.9255C71.9831 13.4981 71.4625 14.4873 71.0981 15.893C70.7857 17.2987 70.6295 19.225 70.6295 21.6719V27.8413C70.6295 29.8196 70.7597 31.5377 71.02 32.9954C71.3324 34.4011 71.8269 35.4944 72.5038 36.2753C73.2326 37.0042 74.1958 37.3686 75.3932 37.3686C76.4865 37.3686 77.3455 37.1083 77.9703 36.5877C78.6471 36.0671 79.1417 35.2081 79.454 34.0106C79.7664 32.7611 79.9226 31.0952 79.9226 29.0127H90.5433C90.5433 31.8761 90.2049 34.4011 89.5281 36.5877C88.9033 38.7223 87.9402 40.5184 86.6386 41.9761C85.3371 43.3818 83.7231 44.4491 81.7968 45.178C79.8705 45.8548 77.6319 46.1932 75.0808 46.1932Z" fill="#393FCF"/>
<path d="M30.9583 32.3986V4.93321H37.4207L37.9419 8.42501H38.2024C38.6889 7.48692 39.2621 6.72254 39.9223 6.13189C40.6172 5.50649 41.3989 5.05481 42.2675 4.77686C43.1361 4.46416 44.0916 4.30781 45.1339 4.30781C46.7322 4.30781 48.0351 4.62051 49.0427 5.24591C50.085 5.83656 50.8494 6.73991 51.3358 7.95596C51.8222 9.13727 52.0654 10.6313 52.0654 12.438V32.3986H44.5085V14.2621C44.5085 13.7409 44.4564 13.2892 44.3522 12.907C44.2479 12.4901 44.0916 12.1427 43.8831 11.8647C43.6747 11.5867 43.3967 11.3783 43.0493 11.2393C42.7366 11.0656 42.3544 10.9787 41.9027 10.9787C41.1731 10.9787 40.5477 11.2046 40.0265 11.6562C39.5401 12.1079 39.1753 12.7507 38.9321 13.5845C38.6889 14.3837 38.5673 15.3391 38.5673 16.4509V32.3986H30.9583Z" fill="#393FCF"/>
<path d="M14.8421 33.024C12.3058 33.024 10.1864 32.5376 8.48388 31.5647C6.78141 30.5919 5.51325 29.0458 4.67938 26.9264C3.84552 24.8069 3.42859 22.0448 3.42859 18.6398C3.42859 15.2001 3.86289 12.438 4.7315 10.3533C5.63485 8.23392 6.93776 6.70517 8.64023 5.76707C10.3427 4.79423 12.4447 4.30781 14.9463 4.30781C17.4132 4.30781 19.4457 4.75949 21.0439 5.66284C22.6769 6.53145 23.893 7.99071 24.6921 10.0406C25.4912 12.0905 25.8908 14.8353 25.8908 18.275V20.0991H11.1939C11.1939 21.7321 11.2982 23.0871 11.5066 24.1642C11.7498 25.2413 12.132 26.0577 12.6532 26.6137C13.2091 27.1348 13.9561 27.3954 14.8942 27.3954C15.4849 27.3954 15.9886 27.3085 16.4056 27.1348C16.8573 26.9263 17.2221 26.631 17.5 26.2488C17.778 25.8319 17.9864 25.3281 18.1254 24.7375C18.2644 24.1468 18.3339 23.4345 18.3339 22.6007H25.8387C25.8387 24.3379 25.5954 25.8666 25.109 27.1869C24.6573 28.5072 23.9625 29.6017 23.0244 30.4703C22.121 31.3041 20.9745 31.9469 19.5847 32.3986C18.2297 32.8155 16.6488 33.024 14.8421 33.024ZM11.2461 15.9819H18.1254C18.1254 14.8701 18.0559 13.932 17.917 13.1676C17.8127 12.4032 17.639 11.7778 17.3958 11.2914C17.1526 10.805 16.8225 10.4576 16.4056 10.2491C15.9886 10.0406 15.4849 9.93639 14.8942 9.93639C14.0256 9.93639 13.3307 10.1622 12.8095 10.6139C12.2884 11.0308 11.9062 11.691 11.663 12.5943C11.4198 13.4629 11.2808 14.5921 11.2461 15.9819Z" fill="#393FCF"/>
<path d="M3.76874 39.7018H52.2133V45.2559H3.76874V39.7018Z" fill="#393FCF"/>
</svg>
